<svg xmlns="http://www.w3.org/2000/svg" width="20" height="20" viewBox="0 0 20 20" fill="none">
    <path
        d="M10.0085 1.67595C10.6567 1.67599 11.2826 1.91209 11.7693 2.34012L11.8977 2.46095L12.4793 3.04262C12.639 3.20121 12.8474 3.30133 13.071 3.32678L13.1835 3.33345H14.0168C14.6979 3.33341 15.3531 3.59392 15.8482 4.06157C16.3432 4.52921 16.6406 5.16854 16.6793 5.84845L16.6835 6.00012V6.83345C16.6835 7.05845 16.7602 7.27762 16.8985 7.45262L16.9735 7.53595L17.5543 8.11762C18.0358 8.59632 18.3165 9.24063 18.3393 9.91917C18.362 10.5977 18.1251 11.2594 17.6768 11.7693L17.556 11.8976L16.9743 12.4793C16.8158 12.6389 16.7156 12.8474 16.6902 13.071L16.6835 13.1834V14.0168C16.6836 14.6978 16.423 15.353 15.9554 15.8481C15.4878 16.3432 14.8484 16.6406 14.1685 16.6793L14.0168 16.6835H13.1835C12.9588 16.6835 12.7407 16.7593 12.5643 16.8984L12.481 16.9734L11.8993 17.5543C11.4206 18.0357 10.7763 18.3164 10.0978 18.3392C9.41925 18.362 8.75758 18.1251 8.24768 17.6768L8.11935 17.5559L7.53768 16.9743C7.37805 16.8157 7.16959 16.7156 6.94601 16.6901L6.83351 16.6835H6.00018C5.31917 16.6835 4.66394 16.423 4.16887 15.9553C3.67381 15.4877 3.37641 14.8484 3.33768 14.1685L3.33351 14.0168V13.1834C3.33344 12.9588 3.2577 12.7407 3.11851 12.5643L3.04351 12.481L2.46268 11.8993C1.98125 11.4206 1.70053 10.7763 1.67777 10.0977C1.65501 9.41918 1.89191 8.75751 2.34018 8.24762L2.46101 8.11928L3.04268 7.53762C3.20127 7.37798 3.30139 7.16953 3.32685 6.94595L3.33351 6.83345V6.00012L3.33768 5.84845C3.37489 5.19465 3.65137 4.57741 4.11442 4.11436C4.57747 3.6513 5.19472 3.37483 5.84851 3.33762L6.00018 3.33345H6.83351C7.0582 3.33338 7.27631 3.25764 7.45268 3.11845L7.53601 3.04345L8.11768 2.46262C8.36546 2.21336 8.66007 2.01554 8.98457 1.88053C9.30907 1.74553 9.65705 1.676 10.0085 1.67595ZM13.0893 7.74428C12.9331 7.58806 12.7212 7.50029 12.5002 7.50029C12.2792 7.50029 12.0673 7.58806 11.911 7.74428L9.16685 10.4876L8.08935 9.41095L8.01101 9.34178C7.84352 9.21227 7.63301 9.15137 7.42224 9.17145C7.21147 9.19153 7.01625 9.29108 6.87622 9.44988C6.73619 9.60869 6.66186 9.81484 6.66832 10.0265C6.67479 10.2381 6.76156 10.4393 6.91101 10.5893L8.57768 12.2559L8.65601 12.3251C8.81635 12.4495 9.01656 12.5111 9.21908 12.4984C9.4216 12.4856 9.61252 12.3994 9.75601 12.2559L13.0893 8.92262L13.1585 8.84428C13.2829 8.68395 13.3445 8.48374 13.3318 8.28122C13.319 8.07869 13.2328 7.88778 13.0893 7.74428Z"
        fill="#57AC1D" />
</svg>